<svg id="svg" xmlns="http://www.w3.org/2000/svg" xmlns:xlink="http://www.w3.org/1999/xlink" width="400" height="141.77215189873417" viewBox="0, 0, 400,141.77215189873417" version="1.1"><g id="svgg"><path id="path0" d="M205.167 1.010 C 205.167 1.107,205.232 1.146,205.311 1.097 C 205.390 1.048,205.590 1.156,205.754 1.337 C 205.918 1.518,205.985 1.667,205.904 1.667 C 205.822 1.667,206.537 2.450,207.491 3.408 C 208.446 4.366,209.280 5.117,209.344 5.076 C 209.409 5.036,209.503 5.160,209.553 5.352 C 209.603 5.544,209.724 5.651,209.822 5.590 C 209.920 5.530,210.000 5.580,210.000 5.702 C 210.000 5.927,213.274 9.284,213.420 9.208 C 213.464 9.185,213.492 9.212,213.482 9.267 C 213.452 9.440,214.882 10.823,215.009 10.745 C 215.075 10.704,215.170 10.827,215.220 11.019 C 215.270 11.210,215.382 11.323,215.470 11.269 C 215.557 11.215,215.668 11.322,215.717 11.507 C 215.765 11.692,215.905 11.822,216.027 11.796 C 216.150 11.771,216.229 11.849,216.204 11.971 C 216.178 12.099,216.238 12.142,216.348 12.074 C 216.528 11.963,205.582 0.833,205.293 0.833 C 205.223 0.833,205.167 0.913,205.167 1.010 M12.083 11.615 C 11.325 11.796,11.333 11.680,11.333 22.356 L 11.333 32.481 11.704 32.741 C 11.992 32.943,12.546 33.000,14.204 33.000 C 16.111 33.000,16.368 33.035,16.667 33.333 C 17.108 33.775,17.203 84.492,16.764 85.093 C 16.554 85.380,16.255 85.426,14.091 85.500 C 12.171 85.566,11.620 85.636,11.496 85.833 C 11.193 86.314,11.289 106.265,11.595 106.571 C 12.007 106.984,48.346 106.970,48.688 106.558 C 49.017 106.162,49.029 86.129,48.701 85.800 C 48.553 85.652,47.750 85.557,46.165 85.500 C 44.232 85.431,43.795 85.367,43.547 85.119 C 43.265 84.836,43.250 83.564,43.250 59.229 L 43.250 33.637 43.643 33.319 C 43.985 33.042,44.318 33.000,46.153 33.000 C 49.270 33.000,48.917 34.360,48.917 22.353 C 48.917 12.808,48.898 12.160,48.619 11.881 C 48.333 11.595,13.239 11.339,12.083 11.615 M56.168 11.648 C 55.319 11.886,55.332 11.667,55.376 25.306 L 55.417 38.030 55.810 38.348 C 56.188 38.654,56.605 38.667,66.109 38.667 L 76.015 38.667 76.424 38.258 C 76.817 37.865,76.833 37.760,76.833 35.684 C 76.833 32.907,76.731 33.000,79.787 33.000 C 81.778 33.000,82.033 33.033,82.333 33.333 C 82.775 33.775,82.870 84.491,82.430 85.093 C 82.219 85.383,81.942 85.422,79.765 85.471 C 77.500 85.521,77.318 85.549,77.084 85.883 C 76.699 86.433,76.707 105.912,77.093 106.463 L 77.352 106.833 95.750 106.833 L 114.148 106.833 114.407 106.463 C 114.793 105.913,114.801 86.433,114.416 85.883 C 114.184 85.551,113.997 85.521,111.858 85.471 C 110.213 85.432,109.471 85.351,109.275 85.188 C 109.022 84.977,109.000 82.938,109.000 59.239 L 109.000 33.519 109.370 33.259 C 109.881 32.902,113.777 32.883,114.260 33.236 C 114.546 33.445,114.593 33.744,114.667 35.833 C 114.740 37.922,114.787 38.221,115.074 38.430 C 115.651 38.852,135.163 38.775,135.690 38.348 L 136.083 38.029 136.083 25.104 C 136.083 12.918,136.066 12.162,135.786 11.881 C 135.476 11.572,57.258 11.343,56.168 11.648 M156.422 11.676 C 155.878 11.839,141.661 25.907,141.239 26.700 C 141.037 27.081,141.000 29.285,141.000 40.977 L 141.000 54.803 141.642 55.610 C 142.428 56.598,155.716 69.670,156.221 69.952 C 156.497 70.106,159.841 70.156,170.217 70.161 C 185.593 70.167,184.165 70.033,185.684 71.612 C 187.268 73.259,187.167 72.835,187.167 77.795 C 187.167 82.866,187.238 82.588,185.536 84.193 C 184.080 85.566,184.500 85.500,177.250 85.500 C 169.725 85.500,169.599 85.464,167.639 82.767 L 167.167 82.117 167.167 78.179 C 167.167 74.884,167.124 74.180,166.907 73.870 L 166.648 73.500 154.086 73.500 C 142.888 73.500,141.495 73.528,141.262 73.762 C 141.030 73.993,141.000 75.051,141.000 82.883 L 141.000 91.742 148.546 99.288 L 156.091 106.833 177.167 106.833 L 198.242 106.833 205.715 99.366 C 212.217 92.869,213.207 91.814,213.339 91.241 C 213.510 90.504,213.557 65.633,213.390 64.583 C 213.280 63.892,199.538 49.705,198.256 48.958 C 197.790 48.687,196.808 48.667,184.200 48.667 C 174.274 48.667,170.547 48.615,170.281 48.474 C 169.653 48.142,167.853 46.488,167.502 45.920 C 167.067 45.217,166.981 36.841,167.400 36.033 C 167.722 35.414,169.860 33.378,170.408 33.170 C 170.684 33.065,173.315 33.000,177.277 33.000 C 184.756 33.000,184.265 32.899,185.962 34.794 L 187.083 36.046 187.167 40.537 C 187.245 44.737,187.271 45.043,187.574 45.264 C 187.937 45.529,212.547 45.623,212.961 45.361 C 213.078 45.287,213.246 44.970,213.336 44.656 C 213.515 44.033,213.566 28.536,213.393 27.417 C 213.257 26.534,198.848 11.946,197.834 11.664 C 197.090 11.457,157.116 11.469,156.422 11.676 M235.422 11.676 C 234.924 11.825,222.535 24.018,220.817 26.050 L 220.000 27.017 220.000 59.382 L 220.000 91.746 227.544 99.290 L 235.087 106.833 256.167 106.833 L 277.246 106.833 284.790 99.290 L 292.333 91.746 292.333 59.388 L 292.333 27.030 291.683 26.223 C 290.126 24.292,277.418 11.834,276.834 11.667 C 276.098 11.456,236.130 11.465,235.422 11.676 M300.250 11.615 C 299.492 11.797,299.500 11.680,299.500 22.356 L 299.500 32.481 299.870 32.741 C 300.158 32.942,300.709 33.000,302.333 33.000 C 303.957 33.000,304.509 33.058,304.796 33.259 L 305.167 33.519 305.167 59.239 C 305.167 82.938,305.145 84.977,304.892 85.188 C 304.696 85.350,303.959 85.433,302.350 85.471 C 300.577 85.514,300.020 85.583,299.792 85.789 C 299.367 86.172,299.338 106.148,299.762 106.571 C 299.997 106.806,301.911 106.833,318.336 106.833 L 336.648 106.833 336.907 106.463 C 337.293 105.913,337.301 86.433,336.916 85.883 C 336.684 85.551,336.497 85.521,334.358 85.471 C 332.713 85.432,331.971 85.351,331.775 85.188 C 331.347 84.832,331.354 65.712,331.782 65.548 C 332.191 65.391,331.660 64.542,344.680 86.202 C 351.241 97.118,356.767 106.225,356.959 106.441 L 357.308 106.833 372.725 106.833 C 386.519 106.833,388.170 106.806,388.405 106.571 C 388.711 106.265,388.807 86.314,388.504 85.833 C 388.380 85.636,387.829 85.566,385.909 85.500 C 383.745 85.426,383.446 85.380,383.236 85.093 C 382.797 84.492,382.892 33.775,383.333 33.333 C 383.632 33.035,383.889 33.000,385.796 33.000 C 387.454 33.000,388.008 32.943,388.296 32.741 L 388.667 32.481 388.667 22.356 C 388.667 13.874,388.628 12.178,388.430 11.907 C 388.075 11.421,351.866 11.396,351.381 11.881 C 350.990 12.271,350.912 32.311,351.299 32.700 C 351.448 32.849,352.265 32.943,353.916 33.000 C 355.567 33.057,356.385 33.151,356.534 33.300 C 356.870 33.637,356.939 53.459,356.605 53.915 C 356.215 54.449,356.305 54.592,343.471 33.182 C 336.680 21.853,330.907 12.358,330.642 12.083 L 330.160 11.583 315.372 11.559 C 307.238 11.546,300.433 11.571,300.250 11.615 M263.282 33.292 C 263.571 33.452,264.320 34.140,264.946 34.820 L 266.083 36.056 266.127 59.131 L 266.170 82.205 265.825 82.764 C 265.291 83.627,263.401 85.278,262.811 85.396 C 261.947 85.569,250.136 85.513,249.488 85.333 C 249.079 85.219,248.467 84.731,247.530 83.771 L 246.167 82.374 246.167 59.429 C 246.167 39.884,246.202 36.417,246.404 36.033 C 246.728 35.421,248.818 33.388,249.333 33.185 C 250.161 32.859,262.674 32.955,263.282 33.292 M0.833 45.348 C 0.833 45.443,0.740 45.463,0.625 45.395 C 0.483 45.309,0.490 45.360,0.645 45.551 C 0.835 45.785,1.185 45.833,2.687 45.833 L 4.500 45.833 4.500 59.250 L 4.500 72.667 2.619 72.667 C 0.791 72.667,0.737 72.677,0.710 73.040 C 0.693 73.255,0.733 73.330,0.803 73.216 C 0.936 73.001,4.162 72.874,4.482 73.072 C 4.617 73.155,4.667 69.418,4.667 59.260 C 4.667 46.758,4.640 45.333,4.407 45.333 C 4.264 45.333,4.193 45.408,4.250 45.500 C 4.316 45.607,3.776 45.667,2.750 45.667 C 1.849 45.667,1.187 45.601,1.239 45.517 C 1.290 45.435,1.219 45.325,1.082 45.273 C 0.945 45.220,0.833 45.254,0.833 45.348 M398.874 45.289 C 398.759 45.329,398.707 45.430,398.759 45.514 C 398.813 45.602,398.176 45.667,397.250 45.667 C 396.224 45.667,395.684 45.607,395.750 45.500 C 395.807 45.408,395.736 45.333,395.593 45.333 C 395.360 45.333,395.333 46.758,395.333 59.260 C 395.333 69.418,395.383 73.155,395.518 73.072 C 395.838 72.874,399.064 73.001,399.197 73.216 C 399.267 73.330,399.307 73.255,399.290 73.040 C 399.263 72.677,399.209 72.667,397.381 72.667 L 395.500 72.667 395.500 59.250 L 395.500 45.833 397.313 45.833 C 398.815 45.833,399.165 45.785,399.355 45.551 C 399.480 45.396,399.496 45.322,399.389 45.386 C 399.282 45.450,399.170 45.438,399.139 45.359 C 399.108 45.281,398.989 45.249,398.874 45.289 M224.856 119.228 C 221.048 120.606,221.550 124.869,225.777 127.047 C 227.457 127.913,228.167 128.595,228.167 129.346 C 228.167 130.762,226.236 131.088,224.826 129.911 C 223.636 128.916,221.836 129.609,222.318 130.877 C 223.459 133.877,229.092 133.930,230.575 130.954 C 231.777 128.542,230.840 126.705,227.500 124.924 C 225.115 123.651,224.616 122.869,225.576 121.909 C 226.165 121.320,226.897 121.372,228.000 122.083 C 228.957 122.700,229.243 122.713,230.000 122.178 C 232.018 120.752,227.618 118.229,224.856 119.228 M0.210 119.333 C 0.284 119.606,50.167 119.814,50.167 119.542 C 50.167 119.473,38.976 119.434,25.300 119.455 C 5.767 119.485,0.401 119.450,0.287 119.288 C 0.181 119.139,0.160 119.152,0.210 119.333 M70.153 119.513 C 69.816 119.851,69.808 119.984,69.862 124.555 C 69.922 129.717,70.009 130.172,71.210 131.591 C 72.983 133.687,77.630 133.714,79.616 131.640 C 80.835 130.368,80.911 129.970,80.968 124.584 C 81.026 119.122,81.037 119.167,79.685 119.167 C 78.344 119.167,78.364 119.093,78.304 124.209 C 78.236 129.902,78.004 130.465,75.651 130.636 C 73.113 130.819,72.772 130.104,72.667 124.392 C 72.590 120.244,72.557 119.838,72.266 119.517 C 71.827 119.033,70.636 119.031,70.153 119.513 M98.204 119.426 L 97.833 119.686 97.833 126.083 L 97.833 132.481 98.204 132.741 C 98.735 133.112,99.759 133.074,100.167 132.667 C 100.479 132.354,100.500 132.109,100.503 128.708 C 100.506 123.483,100.488 123.485,103.615 128.404 C 106.615 133.125,106.399 132.877,107.595 132.959 C 109.363 133.080,109.250 133.551,109.250 126.083 C 109.250 118.803,109.319 119.164,107.926 119.169 C 106.567 119.174,106.500 119.389,106.500 123.744 C 106.500 128.812,106.575 128.818,103.303 123.511 C 100.612 119.145,99.676 118.395,98.204 119.426 M126.442 119.471 C 126.196 119.744,126.167 120.450,126.167 126.112 C 126.167 133.283,126.113 133.000,127.471 133.000 C 128.875 133.000,128.833 133.210,128.833 126.083 C 128.833 120.056,128.821 119.821,128.500 119.500 C 128.056 119.056,126.833 119.039,126.442 119.471 M145.095 119.429 C 144.714 119.810,144.652 119.598,147.003 125.976 C 149.825 133.631,149.449 133.000,151.193 133.000 C 152.604 133.000,152.574 133.052,155.105 126.183 C 157.783 118.914,157.752 119.167,155.946 119.167 C 154.722 119.167,154.623 119.328,153.078 123.877 C 150.925 130.217,151.245 130.217,149.086 123.879 C 148.114 121.026,147.569 119.660,147.322 119.458 C 146.857 119.080,145.462 119.061,145.095 119.429 M173.667 119.500 C 173.345 119.821,173.333 120.056,173.333 126.083 C 173.333 133.814,172.905 133.000,176.968 133.000 C 180.263 133.000,180.448 132.949,180.603 131.996 C 180.783 130.887,180.354 130.618,178.235 130.509 C 176.111 130.401,175.938 130.257,176.049 128.700 C 176.137 127.472,176.366 127.296,177.997 127.201 C 179.468 127.116,179.833 126.877,179.833 126.000 C 179.833 125.103,179.435 124.833,178.111 124.833 C 176.353 124.833,175.748 124.192,176.081 122.678 C 176.275 121.793,176.535 121.667,178.160 121.667 C 180.241 121.667,181.138 120.665,180.091 119.508 C 179.622 118.990,174.184 118.983,173.667 119.500 M197.333 119.500 C 197.012 119.821,197.000 120.056,197.000 126.083 C 197.000 133.221,196.957 133.003,198.375 132.997 C 199.633 132.993,199.833 132.558,199.833 129.826 C 199.833 127.925,199.934 127.667,200.674 127.667 C 201.272 127.667,201.453 127.911,202.727 130.431 C 203.929 132.807,204.130 133.000,205.404 133.000 C 206.836 133.000,206.817 132.621,205.235 129.699 C 203.951 127.327,203.918 127.094,204.724 126.152 C 206.808 123.717,205.812 120.330,202.740 119.405 C 201.427 119.010,197.759 119.075,197.333 119.500 M247.574 119.403 C 247.263 119.630,247.250 119.897,247.250 126.083 C 247.250 133.384,247.174 133.000,248.615 133.000 C 250.045 133.000,250.000 133.226,250.000 126.083 C 250.000 120.056,249.988 119.821,249.667 119.500 C 249.266 119.100,248.065 119.044,247.574 119.403 M267.184 119.482 C 266.633 120.034,266.634 132.134,267.186 132.686 C 267.652 133.152,272.013 133.077,273.417 132.579 C 279.413 130.452,279.310 121.495,273.267 119.559 C 271.798 119.089,267.631 119.036,267.184 119.482 M297.793 119.557 C 297.426 119.970,293.186 131.653,293.174 132.286 C 293.165 132.734,293.616 133.000,294.383 133.000 C 295.240 133.000,295.754 132.492,296.174 131.228 C 296.736 129.540,296.805 129.500,299.167 129.500 C 301.528 129.500,301.598 129.540,302.159 131.228 C 302.386 131.909,302.688 132.457,302.952 132.665 C 303.695 133.249,305.167 133.025,305.167 132.327 C 305.167 131.649,300.834 119.755,300.479 119.458 C 299.918 118.990,298.244 119.052,297.793 119.557 M321.595 119.428 C 321.168 119.856,321.151 120.158,321.201 126.472 C 321.260 133.801,320.892 133.058,324.417 132.957 C 329.856 132.802,332.337 130.470,332.137 125.699 C 331.994 122.277,329.999 119.947,326.686 119.333 C 325.190 119.056,321.907 119.117,321.595 119.428 M399.667 119.302 C 399.667 119.446,393.409 119.484,374.750 119.455 C 361.046 119.434,349.833 119.473,349.833 119.542 C 349.833 119.749,399.629 119.696,399.757 119.489 C 399.817 119.391,399.822 119.266,399.767 119.211 C 399.712 119.156,399.667 119.197,399.667 119.302 M201.809 121.760 C 203.547 122.455,203.269 124.749,201.395 125.172 C 200.160 125.450,199.917 125.161,199.917 123.419 C 199.917 121.515,200.318 121.163,201.809 121.760 M272.780 122.102 C 276.308 123.782,275.431 129.809,271.554 130.530 C 269.612 130.891,269.500 130.638,269.500 125.907 C 269.500 121.278,269.951 120.755,272.780 122.102 M327.101 122.078 C 330.098 123.422,330.086 128.867,327.083 130.181 C 326.013 130.649,324.907 130.753,324.416 130.432 L 324.000 130.159 324.000 126.195 C 324.000 122.140,324.043 121.844,324.667 121.612 C 325.079 121.458,326.196 121.672,327.101 122.078 M299.482 123.395 C 299.744 123.711,300.500 125.973,300.500 126.440 C 300.500 126.921,300.049 127.167,299.167 127.167 C 297.764 127.167,297.628 126.876,298.181 125.059 C 298.704 123.342,299.060 122.887,299.482 123.395 " stroke="none" fill="#fbfbfb" fill-rule="evenodd"></path><path id="path1" d="M0.111 0.111 C -0.114 0.336,-0.017 45.081,0.208 45.324 C 0.371 45.500,0.371 45.523,0.210 45.432 C 0.072 45.354,0.036 45.401,0.103 45.575 C 0.158 45.717,0.353 45.833,0.538 45.833 C 0.833 45.833,0.846 45.799,0.645 45.551 C 0.490 45.360,0.483 45.309,0.625 45.395 C 0.740 45.463,0.833 45.443,0.833 45.348 C 0.833 45.254,0.945 45.220,1.082 45.273 C 1.219 45.325,1.290 45.435,1.239 45.517 C 1.187 45.601,1.849 45.667,2.750 45.667 C 3.776 45.667,4.316 45.607,4.250 45.500 C 4.193 45.408,4.264 45.333,4.407 45.333 C 4.640 45.333,4.667 46.758,4.667 59.260 C 4.667 69.418,4.617 73.155,4.482 73.072 C 4.160 72.873,0.937 73.001,0.788 73.219 C 0.701 73.346,0.670 73.299,0.701 73.089 C 0.733 72.874,0.637 72.739,0.422 72.695 C 0.125 72.635,0.117 72.657,0.339 72.929 C 0.473 73.095,0.497 73.179,0.392 73.116 C 0.287 73.053,0.156 73.120,0.101 73.265 C -0.173 73.979,-0.004 119.704,0.272 119.598 C 0.662 119.448,50.167 119.392,50.167 119.541 C 50.167 119.610,39.048 119.685,25.458 119.708 L 0.750 119.751 25.458 119.792 L 50.167 119.833 50.167 126.843 C 50.167 130.927,50.229 133.815,50.316 133.761 C 50.398 133.710,50.508 133.781,50.561 133.918 C 50.613 134.055,50.565 134.168,50.453 134.169 C 50.326 134.171,50.313 134.218,50.417 134.294 C 50.508 134.362,50.605 134.642,50.632 134.917 C 50.706 135.681,51.957 138.213,52.190 138.069 C 52.317 137.990,52.340 138.021,52.256 138.157 C 52.081 138.440,54.582 140.902,54.874 140.734 C 54.989 140.668,55.028 140.675,54.959 140.750 C 54.788 140.939,55.456 141.380,55.693 141.234 C 55.805 141.165,55.840 141.188,55.777 141.290 C 55.551 141.655,59.707 141.666,200.000 141.666 C 340.293 141.666,344.449 141.655,344.223 141.290 C 344.160 141.188,344.195 141.165,344.307 141.234 C 344.544 141.380,345.212 140.939,345.041 140.750 C 344.972 140.675,345.011 140.668,345.126 140.734 C 345.418 140.902,347.919 138.440,347.744 138.157 C 347.660 138.021,347.683 137.990,347.810 138.069 C 348.043 138.213,349.294 135.681,349.368 134.917 C 349.395 134.642,349.492 134.362,349.583 134.294 C 349.687 134.218,349.674 134.171,349.547 134.169 C 349.435 134.168,349.387 134.055,349.439 133.918 C 349.492 133.781,349.602 133.710,349.684 133.761 C 349.771 133.815,349.833 130.927,349.833 126.844 L 349.833 119.834 374.542 119.792 L 399.250 119.749 374.542 119.708 C 360.952 119.685,349.833 119.610,349.833 119.542 C 349.833 119.392,399.337 119.448,399.728 119.598 C 400.004 119.704,400.173 73.979,399.899 73.265 C 399.844 73.120,399.713 73.053,399.608 73.116 C 399.503 73.179,399.527 73.095,399.661 72.929 C 399.883 72.657,399.875 72.635,399.578 72.695 C 399.363 72.739,399.267 72.874,399.299 73.089 C 399.330 73.299,399.299 73.346,399.212 73.219 C 399.063 73.001,395.840 72.873,395.518 73.072 C 395.383 73.155,395.333 69.418,395.333 59.260 C 395.333 46.758,395.360 45.333,395.593 45.333 C 395.736 45.333,395.807 45.408,395.750 45.500 C 395.684 45.607,396.224 45.667,397.250 45.667 C 398.151 45.667,398.813 45.601,398.761 45.517 C 398.710 45.435,398.781 45.325,398.918 45.273 C 399.055 45.220,399.167 45.254,399.167 45.348 C 399.167 45.443,399.260 45.463,399.375 45.395 C 399.517 45.309,399.510 45.360,399.355 45.551 C 399.154 45.799,399.167 45.833,399.462 45.833 C 399.647 45.833,399.842 45.717,399.897 45.575 C 399.964 45.399,399.930 45.356,399.790 45.440 C 399.629 45.537,399.630 45.507,399.792 45.306 C 399.958 45.101,399.992 40.388,399.959 22.566 L 399.917 0.083 314.280 0.042 L 228.644 -0.000 225.993 2.606 C 224.504 4.069,223.388 5.293,223.448 5.398 C 223.506 5.500,223.492 5.528,223.417 5.460 C 223.225 5.286,222.814 5.664,222.945 5.894 C 223.005 5.998,222.992 6.028,222.917 5.960 C 222.730 5.791,222.311 6.162,222.444 6.378 C 222.503 6.473,222.473 6.503,222.378 6.444 C 222.283 6.385,222.118 6.441,222.012 6.569 C 221.906 6.697,221.879 6.833,221.951 6.873 C 222.024 6.913,221.995 6.925,221.887 6.899 C 221.653 6.844,221.262 7.269,221.451 7.373 C 221.524 7.413,221.495 7.425,221.387 7.399 C 221.153 7.344,220.762 7.769,220.951 7.873 C 221.024 7.913,220.995 7.925,220.887 7.899 C 220.653 7.844,220.262 8.269,220.451 8.373 C 220.524 8.413,220.495 8.425,220.387 8.399 C 220.153 8.344,219.762 8.769,219.951 8.873 C 220.024 8.913,219.995 8.925,219.887 8.899 C 219.653 8.844,219.262 9.269,219.451 9.373 C 219.524 9.413,219.495 9.425,219.387 9.399 C 219.153 9.344,218.762 9.769,218.951 9.873 C 219.024 9.913,218.995 9.925,218.887 9.899 C 218.653 9.844,218.262 10.269,218.451 10.373 C 218.524 10.413,218.499 10.426,218.396 10.403 C 218.133 10.343,216.798 11.740,216.955 11.912 C 217.025 11.990,216.986 11.997,216.868 11.929 C 216.749 11.861,216.555 11.885,216.437 11.983 C 216.279 12.115,216.222 12.098,216.222 11.921 C 216.222 11.789,216.303 11.724,216.403 11.777 C 216.502 11.829,213.917 9.201,210.657 5.936 L 204.731 0.000 102.477 0.000 C 46.237 0.000,0.172 0.050,0.111 0.111 M210.812 6.228 C 214.268 9.686,216.134 11.667,216.008 11.745 C 215.887 11.820,215.776 11.733,215.720 11.519 C 215.670 11.327,215.557 11.215,215.470 11.269 C 215.382 11.323,215.270 11.210,215.220 11.019 C 215.170 10.827,215.075 10.704,215.009 10.745 C 214.882 10.823,213.452 9.440,213.482 9.267 C 213.492 9.212,213.464 9.185,213.420 9.208 C 213.274 9.284,210.000 5.927,210.000 5.702 C 210.000 5.580,209.920 5.530,209.822 5.590 C 209.724 5.651,209.603 5.544,209.553 5.352 C 209.503 5.160,209.409 5.036,209.344 5.076 C 209.280 5.117,208.446 4.366,207.491 3.408 C 206.537 2.450,205.822 1.667,205.904 1.667 C 205.985 1.667,205.918 1.518,205.754 1.337 C 205.590 1.156,205.390 1.048,205.311 1.097 C 205.232 1.146,205.167 1.107,205.167 1.010 C 205.167 0.616,205.630 1.044,210.812 6.228 M48.619 11.881 C 48.898 12.160,48.917 12.808,48.917 22.353 C 48.917 34.360,49.270 33.000,46.153 33.000 C 44.318 33.000,43.985 33.042,43.643 33.319 L 43.250 33.637 43.250 59.229 C 43.250 83.564,43.265 84.836,43.547 85.119 C 43.795 85.367,44.232 85.431,46.165 85.500 C 47.750 85.557,48.553 85.652,48.701 85.800 C 49.029 86.129,49.017 106.162,48.688 106.558 C 48.346 106.970,12.007 106.984,11.595 106.571 C 11.289 106.265,11.193 86.314,11.496 85.833 C 11.620 85.636,12.171 85.566,14.091 85.500 C 16.255 85.426,16.554 85.380,16.764 85.093 C 17.203 84.492,17.108 33.775,16.667 33.333 C 16.368 33.035,16.111 33.000,14.204 33.000 C 12.546 33.000,11.992 32.943,11.704 32.741 L 11.333 32.481 11.333 22.356 C 11.333 11.680,11.325 11.796,12.083 11.615 C 13.239 11.339,48.333 11.595,48.619 11.881 M135.786 11.881 C 136.066 12.162,136.083 12.918,136.083 25.104 L 136.083 38.029 135.690 38.348 C 135.163 38.775,115.651 38.852,115.074 38.430 C 114.787 38.221,114.740 37.922,114.667 35.833 C 114.593 33.744,114.546 33.445,114.260 33.236 C 113.777 32.883,109.881 32.902,109.370 33.259 L 109.000 33.519 109.000 59.239 C 109.000 82.938,109.022 84.977,109.275 85.188 C 109.471 85.351,110.213 85.432,111.858 85.471 C 113.997 85.521,114.184 85.551,114.416 85.883 C 114.801 86.433,114.793 105.913,114.407 106.463 L 114.148 106.833 95.750 106.833 L 77.352 106.833 77.093 106.463 C 76.707 105.912,76.699 86.433,77.084 85.883 C 77.318 85.549,77.500 85.521,79.765 85.471 C 81.942 85.422,82.219 85.383,82.430 85.093 C 82.870 84.491,82.775 33.775,82.333 33.333 C 82.033 33.033,81.778 33.000,79.787 33.000 C 76.731 33.000,76.833 32.907,76.833 35.684 C 76.833 37.760,76.817 37.865,76.424 38.258 L 76.015 38.667 66.109 38.667 C 56.605 38.667,56.188 38.654,55.810 38.348 L 55.417 38.030 55.376 25.306 C 55.332 11.667,55.319 11.886,56.168 11.648 C 57.258 11.343,135.476 11.572,135.786 11.881 M197.834 11.664 C 198.848 11.946,213.257 26.534,213.393 27.417 C 213.566 28.536,213.515 44.033,213.336 44.656 C 213.246 44.970,213.078 45.287,212.961 45.361 C 212.547 45.623,187.937 45.529,187.574 45.264 C 187.271 45.043,187.245 44.737,187.167 40.537 L 187.083 36.046 185.962 34.794 C 184.265 32.899,184.756 33.000,177.277 33.000 C 173.315 33.000,170.684 33.065,170.408 33.170 C 169.860 33.378,167.722 35.414,167.400 36.033 C 166.981 36.841,167.067 45.217,167.502 45.920 C 167.853 46.488,169.653 48.142,170.281 48.474 C 170.547 48.615,174.274 48.667,184.200 48.667 C 196.808 48.667,197.790 48.687,198.256 48.958 C 199.538 49.705,213.280 63.892,213.390 64.583 C 213.557 65.633,213.510 90.504,213.339 91.241 C 213.207 91.814,212.217 92.869,205.715 99.366 L 198.242 106.833 177.167 106.833 L 156.091 106.833 148.546 99.288 L 141.000 91.742 141.000 82.883 C 141.000 75.051,141.030 73.993,141.262 73.762 C 141.495 73.528,142.888 73.500,154.086 73.500 L 166.648 73.500 166.907 73.870 C 167.124 74.180,167.167 74.884,167.167 78.179 L 167.167 82.117 167.639 82.767 C 169.599 85.464,169.725 85.500,177.250 85.500 C 184.500 85.500,184.080 85.566,185.536 84.193 C 187.238 82.588,187.167 82.866,187.167 77.795 C 187.167 72.835,187.268 73.259,185.684 71.612 C 184.165 70.033,185.593 70.167,170.217 70.161 C 159.841 70.156,156.497 70.106,156.221 69.952 C 155.716 69.670,142.428 56.598,141.642 55.610 L 141.000 54.803 141.000 40.977 C 141.000 29.285,141.037 27.081,141.239 26.700 C 141.661 25.907,155.878 11.839,156.422 11.676 C 157.116 11.469,197.090 11.457,197.834 11.664 M276.834 11.667 C 277.418 11.834,290.126 24.292,291.683 26.223 L 292.333 27.030 292.333 59.388 L 292.333 91.746 284.790 99.290 L 277.246 106.833 256.167 106.833 L 235.087 106.833 227.544 99.290 L 220.000 91.746 220.000 59.382 L 220.000 27.017 220.817 26.050 C 222.535 24.018,234.924 11.825,235.422 11.676 C 236.130 11.465,276.098 11.456,276.834 11.667 M330.642 12.083 C 330.907 12.358,336.680 21.853,343.471 33.182 C 356.305 54.592,356.215 54.449,356.605 53.915 C 356.939 53.459,356.870 33.637,356.534 33.300 C 356.385 33.151,355.567 33.057,353.916 33.000 C 352.265 32.943,351.448 32.849,351.299 32.700 C 350.912 32.311,350.990 12.271,351.381 11.881 C 351.866 11.396,388.075 11.421,388.430 11.907 C 388.628 12.178,388.667 13.874,388.667 22.356 L 388.667 32.481 388.296 32.741 C 388.008 32.943,387.454 33.000,385.796 33.000 C 383.889 33.000,383.632 33.035,383.333 33.333 C 382.892 33.775,382.797 84.492,383.236 85.093 C 383.446 85.380,383.745 85.426,385.909 85.500 C 387.829 85.566,388.380 85.636,388.504 85.833 C 388.807 86.314,388.711 106.265,388.405 106.571 C 388.170 106.806,386.519 106.833,372.725 106.833 L 357.308 106.833 356.959 106.441 C 356.767 106.225,351.241 97.118,344.680 86.202 C 331.660 64.542,332.191 65.391,331.782 65.548 C 331.354 65.712,331.347 84.832,331.775 85.188 C 331.971 85.351,332.713 85.432,334.358 85.471 C 336.497 85.521,336.684 85.551,336.916 85.883 C 337.301 86.433,337.293 105.913,336.907 106.463 L 336.648 106.833 318.336 106.833 C 301.911 106.833,299.997 106.806,299.762 106.571 C 299.338 106.148,299.367 86.172,299.792 85.789 C 300.020 85.583,300.577 85.514,302.350 85.471 C 303.959 85.433,304.696 85.350,304.892 85.188 C 305.145 84.977,305.167 82.938,305.167 59.239 L 305.167 33.519 304.796 33.259 C 304.509 33.058,303.957 33.000,302.333 33.000 C 300.709 33.000,300.158 32.942,299.870 32.741 L 299.500 32.481 299.500 22.356 C 299.500 11.680,299.492 11.797,300.250 11.615 C 300.433 11.571,307.238 11.546,315.372 11.559 L 330.160 11.583 330.642 12.083 M249.333 33.185 C 248.818 33.388,246.728 35.421,246.404 36.033 C 246.202 36.417,246.167 39.884,246.167 59.429 L 246.167 82.374 247.530 83.771 C 248.467 84.731,249.079 85.219,249.488 85.333 C 250.136 85.513,261.947 85.569,262.811 85.396 C 263.401 85.278,265.291 83.627,265.825 82.764 L 266.170 82.205 266.127 59.131 L 266.083 36.056 264.946 34.820 C 263.149 32.867,263.781 32.998,256.253 33.011 C 252.409 33.017,249.580 33.088,249.333 33.185 M4.167 59.250 C 4.167 68.083,4.224 72.667,4.333 72.667 C 4.443 72.667,4.500 68.083,4.500 59.250 C 4.500 50.417,4.443 45.833,4.333 45.833 C 4.224 45.833,4.167 50.417,4.167 59.250 M395.500 59.250 C 395.500 68.083,395.557 72.667,395.667 72.667 C 395.776 72.667,395.833 68.083,395.833 59.250 C 395.833 50.417,395.776 45.833,395.667 45.833 C 395.557 45.833,395.500 50.417,395.500 59.250 M228.595 119.397 C 230.228 120.157,230.920 121.528,230.000 122.178 C 229.243 122.713,228.957 122.700,228.000 122.083 C 226.897 121.372,226.165 121.320,225.576 121.909 C 224.616 122.869,225.115 123.651,227.500 124.924 C 230.840 126.705,231.777 128.542,230.575 130.954 C 229.092 133.930,223.459 133.877,222.318 130.877 C 221.836 129.609,223.636 128.916,224.826 129.911 C 226.236 131.088,228.167 130.762,228.167 129.346 C 228.167 128.595,227.457 127.913,225.777 127.047 C 223.253 125.747,222.331 124.572,222.338 122.667 C 222.348 119.875,225.776 118.084,228.595 119.397 M72.266 119.517 C 72.557 119.838,72.590 120.244,72.667 124.392 C 72.772 130.104,73.113 130.819,75.651 130.636 C 78.004 130.465,78.236 129.902,78.304 124.209 C 78.364 119.093,78.344 119.167,79.685 119.167 C 81.037 119.167,81.026 119.122,80.968 124.584 C 80.911 129.970,80.835 130.368,79.616 131.640 C 77.630 133.714,72.983 133.687,71.210 131.591 C 70.009 130.172,69.922 129.717,69.862 124.555 C 69.808 119.984,69.816 119.851,70.153 119.513 C 70.636 119.031,71.827 119.033,72.266 119.517 M100.732 119.708 C 101.041 120.006,102.198 121.718,103.303 123.511 C 106.575 128.818,106.500 128.812,106.500 123.744 C 106.500 119.389,106.567 119.174,107.926 119.169 C 109.319 119.164,109.250 118.803,109.250 126.083 C 109.250 133.551,109.363 133.080,107.595 132.959 C 106.399 132.877,106.615 133.125,103.615 128.404 C 100.488 123.485,100.506 123.483,100.503 128.708 C 100.500 132.109,100.479 132.354,100.167 132.667 C 99.759 133.074,98.735 133.112,98.204 132.741 L 97.833 132.481 97.833 126.083 L 97.833 119.686 98.204 119.426 C 98.882 118.951,100.087 119.085,100.732 119.708 M128.500 119.500 C 128.821 119.821,128.833 120.056,128.833 126.083 C 128.833 133.210,128.875 133.000,127.471 133.000 C 126.113 133.000,126.167 133.283,126.167 126.112 C 126.167 118.920,126.121 119.167,127.442 119.167 C 127.944 119.167,128.269 119.269,128.500 119.500 M147.322 119.458 C 147.569 119.660,148.114 121.026,149.086 123.879 C 151.245 130.217,150.925 130.217,153.078 123.877 C 154.623 119.328,154.722 119.167,155.946 119.167 C 156.838 119.167,157.333 119.401,157.333 119.823 C 157.333 120.371,152.889 132.217,152.534 132.616 C 151.891 133.338,149.838 133.148,149.413 132.327 C 149.089 131.700,144.833 120.144,144.833 119.891 C 144.833 119.180,146.602 118.873,147.322 119.458 M180.091 119.508 C 181.138 120.665,180.241 121.667,178.160 121.667 C 176.535 121.667,176.275 121.793,176.081 122.678 C 175.748 124.192,176.353 124.833,178.111 124.833 C 179.435 124.833,179.833 125.103,179.833 126.000 C 179.833 126.877,179.468 127.116,177.997 127.201 C 176.366 127.296,176.137 127.472,176.049 128.700 C 175.938 130.257,176.111 130.401,178.235 130.509 C 180.354 130.618,180.783 130.887,180.603 131.996 C 180.448 132.949,180.263 133.000,176.968 133.000 C 172.905 133.000,173.333 133.814,173.333 126.083 C 173.333 120.056,173.345 119.821,173.667 119.500 C 174.184 118.983,179.622 118.990,180.091 119.508 M202.740 119.405 C 205.812 120.330,206.808 123.717,204.724 126.152 C 203.918 127.094,203.951 127.327,205.235 129.699 C 206.817 132.621,206.836 133.000,205.404 133.000 C 204.130 133.000,203.929 132.807,202.727 130.431 C 201.453 127.911,201.272 127.667,200.674 127.667 C 199.934 127.667,199.833 127.925,199.833 129.826 C 199.833 132.558,199.633 132.993,198.375 132.997 C 196.957 133.003,197.000 133.221,197.000 126.083 C 197.000 118.463,196.714 119.167,199.807 119.167 C 201.183 119.167,202.230 119.252,202.740 119.405 M249.667 119.500 C 249.988 119.821,250.000 120.056,250.000 126.083 C 250.000 133.226,250.045 133.000,248.615 133.000 C 247.174 133.000,247.250 133.384,247.250 126.083 C 247.250 119.897,247.263 119.630,247.574 119.403 C 248.065 119.044,249.266 119.100,249.667 119.500 M273.267 119.559 C 279.310 121.495,279.413 130.452,273.417 132.579 C 272.013 133.077,267.652 133.152,267.186 132.686 C 266.634 132.134,266.633 120.034,267.184 119.482 C 267.631 119.036,271.798 119.089,273.267 119.559 M300.479 119.458 C 300.834 119.755,305.167 131.649,305.167 132.327 C 305.167 133.025,303.695 133.249,302.952 132.665 C 302.688 132.457,302.386 131.909,302.159 131.228 C 301.598 129.540,301.528 129.500,299.167 129.500 C 296.805 129.500,296.736 129.540,296.174 131.228 C 295.754 132.492,295.240 133.000,294.383 133.000 C 293.616 133.000,293.165 132.734,293.174 132.286 C 293.186 131.653,297.426 119.970,297.793 119.557 C 298.244 119.052,299.918 118.990,300.479 119.458 M326.686 119.333 C 333.441 120.586,334.298 130.212,327.861 132.544 C 326.586 133.006,322.108 133.173,321.583 132.778 C 321.254 132.530,320.952 121.226,321.243 120.053 C 321.466 119.158,323.961 118.828,326.686 119.333 M200.333 121.716 C 199.687 122.043,199.690 124.804,200.337 125.114 C 201.294 125.572,202.733 124.788,202.938 123.697 C 203.197 122.316,201.579 121.086,200.333 121.716 M270.206 121.669 C 269.598 121.919,269.500 122.507,269.500 125.907 C 269.500 130.638,269.612 130.891,271.554 130.530 C 276.307 129.646,276.055 122.243,271.250 121.602 C 270.883 121.553,270.413 121.583,270.206 121.669 M324.667 121.612 C 324.043 121.844,324.000 122.140,324.000 126.195 L 324.000 130.159 324.416 130.432 C 326.331 131.686,329.333 129.029,329.333 126.080 C 329.333 123.357,326.714 120.849,324.667 121.612 M298.768 123.542 C 298.488 123.981,297.833 126.061,297.833 126.512 C 297.833 126.925,298.326 127.167,299.167 127.167 C 300.602 127.167,300.750 126.793,300.086 124.841 C 299.498 123.112,299.218 122.836,298.768 123.542 " stroke="none" fill="#046bb3" fill-rule="evenodd"></path></g></svg>